<svg width="560" height="424" viewBox="0 0 560 424" fill="none" xmlns="http://www.w3.org/2000/svg">
<g clip-path="url(#clip0)">
<path d="M559.219 415.631H335.961C335.754 415.63 335.556 415.548 335.41 415.401C335.264 415.255 335.182 415.056 335.182 414.849C335.182 414.642 335.264 414.444 335.41 414.297C335.556 414.151 335.754 414.068 335.961 414.068H559.219C559.426 414.068 559.625 414.15 559.771 414.296C559.918 414.443 560 414.642 560 414.849C560 415.057 559.918 415.255 559.771 415.402C559.625 415.549 559.426 415.631 559.219 415.631V415.631Z" fill="#3F3D56"/>
<path d="M453.845 320.832C465.803 320.832 475.496 311.132 475.496 299.165C475.496 287.199 465.803 277.499 453.845 277.499C441.888 277.499 432.195 287.199 432.195 299.165C432.195 311.132 441.888 320.832 453.845 320.832Z" fill="#2F2E41"/>
<path d="M454.285 322.747C463.184 322.747 470.398 315.527 470.398 306.62C470.398 297.714 463.184 290.494 454.285 290.494C445.385 290.494 438.171 297.714 438.171 306.62C438.171 315.527 445.385 322.747 454.285 322.747Z" fill="#A0616A"/>
<path d="M478.776 330.025C478.776 330.025 449.253 324.772 430.227 331.338L435.803 375.656L434.491 382.879L473.856 381.566L471.231 374.343L478.776 330.025Z" fill="#A0616A"/>
<path d="M458.26 377.849C451.463 377.768 444.675 377.337 437.922 376.559C436.535 376.406 435.256 375.739 434.338 374.688C433.419 373.636 432.928 372.279 432.961 370.883L433.44 350.156L433.496 350.076C439.2 341.807 436.422 335.768 434.284 332.517C433.833 331.83 433.593 331.026 433.594 330.204V330.204C433.266 329.747 433.192 330.47 433.396 329.955C433.497 329.7 433.66 329.473 433.87 329.297C434.081 329.121 434.332 329 434.601 328.945L437.858 328.294C438.248 328.216 438.654 328.283 438.999 328.482C439.345 328.682 439.605 329 439.733 329.378C440.827 332.646 445.092 343.16 454.866 343.158C463.03 343.156 466.077 331.595 466.26 328.923C466.29 328.509 466.475 328.122 466.778 327.839C467.082 327.556 467.481 327.399 467.895 327.398H471.963C472.221 327.392 472.476 327.444 472.711 327.55C472.946 327.656 473.153 327.814 473.319 328.012C473.521 328.263 473.645 328.569 473.673 328.89C473.702 329.212 473.634 329.535 473.479 329.818C468.836 338.36 475.621 351.876 475.69 352.011L475.734 352.097L473.819 371.986C473.704 373.153 473.225 374.254 472.451 375.135C471.678 376.015 470.648 376.631 469.506 376.895C466.546 377.592 462.546 377.849 458.26 377.849Z" fill="#CCCCCC"/>
<path d="M420.796 424C416.387 424.001 412.35 423.514 409.144 422.366C405.333 421.001 402.939 418.793 402.03 415.803C401.6 414.531 401.472 413.177 401.655 411.847C401.838 410.517 402.327 409.248 403.084 408.139C408.723 399.689 428.291 397.307 430.916 397.024L432.307 385.424C432.472 384.086 433.114 382.851 434.115 381.948C435.116 381.045 436.409 380.534 437.757 380.509L470.713 379.994C472.036 379.963 473.327 380.408 474.35 381.249C475.373 382.09 476.06 383.27 476.287 384.575L478.159 394.884L456.55 405.369L459.817 414.525L459.604 414.668C453.279 418.888 435.091 423.999 420.796 424Z" fill="#2F2E41"/>
<path d="M475.168 393.384C475.168 393.384 505.347 389.445 503.379 405.202C501.411 420.96 478.448 432.122 443.676 405.202L447.613 397.323C447.613 397.323 467.295 402.576 475.168 398.637V393.384Z" fill="#2F2E41"/>
<path d="M448.269 399.293C448.269 399.293 448.269 391.414 441.708 392.071C435.147 392.727 423.338 393.384 423.338 393.384C423.338 393.384 419.402 396.01 424.65 397.323C429.899 398.637 445.644 405.202 445.644 405.202L448.269 399.293Z" fill="#A0616A"/>
<path d="M459.422 397.98C459.422 397.98 459.422 390.101 465.983 390.758C472.544 391.414 484.353 392.071 484.353 392.071C484.353 392.071 488.289 394.697 483.041 396.01C477.792 397.323 462.046 403.889 462.046 403.889L459.422 397.98Z" fill="#A0616A"/>
<path d="M498.735 396.488L488.945 362.525C488.945 362.525 486.977 350.707 485.009 339.545C483.041 328.383 475.824 329.696 475.824 329.696L474.512 330.353V348.08L475.824 364.495L488.923 400.543C488.537 401.794 488.515 403.128 488.858 404.39C489.202 405.653 489.897 406.791 490.863 407.673C491.829 408.554 493.026 409.142 494.314 409.369C495.602 409.595 496.927 409.45 498.136 408.95C499.344 408.451 500.385 407.618 501.138 406.548C501.891 405.478 502.324 404.216 502.387 402.909C502.45 401.602 502.14 400.305 501.493 399.168C500.846 398.03 499.89 397.101 498.735 396.488Z" fill="#A0616A"/>
<path d="M432.523 331.009C432.523 331.009 425.306 329.696 423.338 340.858C421.37 352.02 419.401 363.838 419.401 363.838L409.612 397.801C408.458 398.414 407.503 399.344 406.857 400.48C406.212 401.617 405.903 402.914 405.966 404.219C406.029 405.525 406.462 406.786 407.215 407.855C407.967 408.923 409.008 409.756 410.215 410.255C411.422 410.754 412.747 410.899 414.033 410.673C415.32 410.447 416.516 409.86 417.482 408.979C418.447 408.099 419.143 406.962 419.487 405.7C419.831 404.439 419.809 403.106 419.424 401.857L432.523 365.808L433.835 349.393V333.134C433.835 332.693 433.712 332.26 433.481 331.885C433.249 331.51 432.917 331.207 432.523 331.009V331.009Z" fill="#A0616A"/>
<path d="M438.334 296.714C444.627 300.558 451.721 302.898 459.065 303.55L456.88 300.93C458.471 301.518 460.145 301.851 461.84 301.915C462.689 301.94 463.532 301.765 464.301 301.405C465.07 301.045 465.744 300.509 466.269 299.841C466.697 299.147 466.952 298.36 467.011 297.547C467.07 296.733 466.931 295.918 466.607 295.17C465.941 293.677 464.904 292.38 463.596 291.402C461.277 289.566 458.539 288.332 455.628 287.812C452.717 287.291 449.723 287.499 446.911 288.418C444.983 288.994 443.256 290.103 441.928 291.617C441.276 292.379 440.822 293.292 440.609 294.273C440.396 295.254 440.429 296.273 440.706 297.238" fill="#2F2E41"/>
<path d="M455.883 279.904C450.801 274.746 444.651 270.766 437.865 268.243C433.51 266.629 428.769 265.631 424.216 266.548C419.662 267.465 415.356 270.617 414.086 275.089C413.047 278.745 414.12 282.681 415.732 286.123C417.344 289.564 419.496 292.756 420.8 296.326C422.13 299.968 422.53 303.886 421.963 307.723C421.397 311.559 419.882 315.193 417.556 318.296C415.23 321.398 412.167 323.869 408.644 325.486C405.122 327.103 401.252 327.814 397.385 327.554C401.859 328.154 405.983 330.258 410.356 331.378C414.729 332.498 419.891 332.422 423.14 329.287C426.579 325.97 426.648 320.576 426.482 315.799C426.234 308.698 425.987 301.598 425.74 294.497C425.614 290.876 425.506 287.138 426.811 283.758C428.116 280.378 431.218 277.418 434.838 277.449C437.582 277.473 440.011 279.136 442.212 280.777C444.412 282.417 446.742 284.168 449.475 284.412C452.208 284.656 455.329 282.632 455.124 279.893" fill="#2F2E41"/>
<path d="M311.963 399.854H23.2906C17.1157 399.847 11.1957 397.389 6.82938 393.019C2.46306 388.65 0.00698232 382.725 0 376.546V23.3084C0.00698059 17.1288 2.46306 11.2043 6.82938 6.8346C11.1957 2.46493 17.1157 0.00698592 23.2906 0H311.963C318.138 0.00699979 324.058 2.46495 328.425 6.83461C332.791 11.2043 335.247 17.1288 335.254 23.3084V376.546C335.247 382.725 332.791 388.65 328.425 393.019C324.058 397.389 318.138 399.847 311.963 399.854Z" fill="#E6E6E6"/>
<path d="M303.434 384.096H31.8196C28.9496 384.093 26.198 382.951 24.1686 380.92C22.1392 378.889 20.9976 376.135 20.9944 373.263V47.6017C20.9976 44.7294 22.1392 41.9758 24.1686 39.9448C26.198 37.9139 28.9496 36.7714 31.8196 36.7682H303.434C306.304 36.7714 309.056 37.9139 311.085 39.9448C313.115 41.9758 314.256 44.7294 314.26 47.6017V373.263C314.256 376.135 313.115 378.889 311.085 380.92C309.056 382.951 306.304 384.093 303.434 384.096Z" fill="white"/>
<path d="M217.311 152.631C212.899 142.06 206.045 133.241 196.097 127.396C185.645 121.256 173.714 116.142 161.693 114.297C149.66 112.518 137.391 113.205 125.632 116.317C119.964 117.787 113.714 119.493 108.934 123.011C104.363 126.374 101.232 131.906 98.6837 136.876C96.2417 141.637 94.7194 146.88 96.0412 152.213C97.2591 157.127 100.665 161.22 104.56 164.299C108.04 167.05 112.906 170.692 117.56 168.987C117.825 168.89 118.077 168.763 118.312 168.608C126.35 171.055 134.341 167.496 142.592 164.709C147.606 163.015 152.648 162.159 157.684 164.273C162.646 166.355 166.685 170.448 169.645 174.858C172.461 179.054 174.315 183.817 177.404 187.839C178.941 189.91 180.894 191.635 183.138 192.903C185.382 194.171 187.867 194.954 190.432 195.202C200.402 196.318 213.634 195.29 219.378 185.843C225.498 175.777 221.493 162.651 217.311 152.631ZM115.543 137.171C117.022 137.339 118.501 137.507 119.98 137.674C117.162 138.182 114.526 139.419 112.334 141.262C111.5 141.966 110.727 142.739 110.023 143.573C110.043 143.505 110.055 143.441 110.077 143.373C110.512 142.018 111.222 140.767 112.162 139.7C113.103 138.633 114.254 137.772 115.543 137.171V137.171ZM165.187 146.621C165.514 146.868 165.897 147.031 166.302 147.097C166.349 147.105 166.396 147.114 166.444 147.122C166.718 147.28 166.994 147.436 167.271 147.591C167.239 147.635 167.216 147.683 167.186 147.727C166.51 147.657 165.834 147.59 165.157 147.522C165.205 147.224 165.215 146.922 165.187 146.621V146.621ZM183.081 167.798C182.932 167.956 182.8 168.13 182.688 168.317C182.622 168.221 182.555 168.125 182.489 168.028C182.673 167.92 182.873 167.842 183.081 167.798V167.798ZM194.638 180.316C195.309 180.404 195.979 180.492 196.649 180.58C196.524 180.798 196.432 181.033 196.376 181.278C195.901 181.294 195.422 181.302 194.943 181.303L194.638 180.316ZM204.345 174.608C204.614 174.561 204.884 174.515 205.154 174.469C205.577 174.4 205.981 174.24 206.336 173.999C206.338 174.046 206.341 174.094 206.343 174.141C206.349 174.303 206.364 174.505 206.385 174.734C206.319 174.85 206.252 174.965 206.181 175.08C205.569 174.922 204.957 174.765 204.345 174.608V174.608ZM169.876 138.935C169.554 138.666 169.191 138.452 168.8 138.301C166.902 137.567 164.958 136.959 162.981 136.48C162.684 136.201 162.395 135.915 162.113 135.622C163.783 135.951 165.433 136.372 167.057 136.881C169.14 137.549 171.183 138.335 173.176 139.236C172.075 139.113 170.975 139.013 169.876 138.935V138.935ZM188.444 140.18C187.475 139.574 186.5 138.979 185.519 138.395C186.525 138.962 187.516 139.557 188.493 140.179L188.444 140.18ZM208.464 149.324C205.865 146.143 202.992 143.198 199.876 140.522C200.117 139.969 200.238 139.371 200.232 138.768C203.496 141.847 206.272 145.407 208.464 149.324V149.324ZM171.127 123.296C170.717 123.201 170.306 123.105 169.895 123.012C165.992 122.131 162.016 121.181 158.004 120.375C158.219 120.4 158.435 120.421 158.65 120.448C162.888 121.01 167.065 121.963 171.127 123.296V123.296Z" fill="#6C63FF"/>
<path d="M167.627 25.2782C171.975 25.2782 175.5 21.7507 175.5 17.3993C175.5 13.0479 171.975 9.52039 167.627 9.52039C163.279 9.52039 159.754 13.0479 159.754 17.3993C159.754 21.7507 163.279 25.2782 167.627 25.2782Z" fill="white"/>
<path d="M87.5584 327.245C87.5557 327.245 87.5525 327.245 87.5494 327.245C87.2598 327.246 86.9801 327.351 86.7602 327.539L79.1239 334.612V327.714C79.124 327.652 79.1119 327.591 79.0884 327.534C79.0649 327.478 79.0304 327.426 78.987 327.382C78.9435 327.339 78.8919 327.304 78.8351 327.281C78.7784 327.257 78.7175 327.245 78.6561 327.245H76.7653C76.7039 327.245 76.643 327.257 76.5862 327.281C76.5295 327.304 76.4779 327.339 76.4344 327.382C76.391 327.426 76.3565 327.478 76.333 327.534C76.3095 327.591 76.2975 327.652 76.2975 327.714V344.247C76.2975 344.308 76.3095 344.369 76.333 344.426C76.3565 344.483 76.391 344.534 76.4344 344.578C76.4779 344.621 76.5295 344.656 76.5862 344.679C76.643 344.703 76.7039 344.715 76.7653 344.715H78.6466C78.7708 344.715 78.8899 344.666 78.9777 344.578C79.0655 344.49 79.1149 344.371 79.1149 344.247V337.395L86.7508 344.43C86.9718 344.616 87.2518 344.717 87.5405 344.715C87.869 344.72 88.1859 344.594 88.4217 344.365C88.6574 344.136 88.7926 343.822 88.7975 343.494V328.504C88.7987 328.34 88.7677 328.177 88.7061 328.025C88.6445 327.873 88.5535 327.734 88.4384 327.618C88.3234 327.501 88.1864 327.408 88.0354 327.344C87.8844 327.28 87.7223 327.246 87.5584 327.245Z" fill="#6C63FF"/>
<path d="M260.278 327.291L260.269 327.291H258.433C258.372 327.291 258.311 327.303 258.254 327.327C258.197 327.35 258.146 327.385 258.102 327.428C258.059 327.472 258.024 327.524 258.001 327.58C257.977 327.637 257.965 327.698 257.965 327.76V334.621L250.329 327.585C250.107 327.395 249.823 327.291 249.531 327.291V327.245C249.367 327.244 249.204 327.275 249.052 327.337C248.901 327.399 248.762 327.49 248.646 327.605C248.529 327.72 248.436 327.857 248.372 328.008C248.308 328.159 248.275 328.321 248.274 328.485C248.273 328.491 248.273 328.498 248.274 328.504V343.512C248.274 343.843 248.405 344.161 248.639 344.395C248.873 344.629 249.191 344.761 249.522 344.761L249.531 344.761C249.822 344.765 250.106 344.664 250.329 344.476L257.965 337.395V344.293C257.965 344.354 257.977 344.415 258.001 344.472C258.024 344.529 258.059 344.58 258.102 344.624C258.146 344.667 258.197 344.702 258.254 344.725C258.311 344.749 258.372 344.761 258.433 344.761H260.269C260.33 344.762 260.392 344.751 260.449 344.729C260.506 344.707 260.558 344.673 260.603 344.63C260.647 344.588 260.682 344.537 260.707 344.48C260.732 344.424 260.745 344.363 260.746 344.302V327.76C260.746 327.698 260.734 327.637 260.711 327.58C260.687 327.524 260.653 327.472 260.609 327.428C260.566 327.385 260.514 327.35 260.458 327.327C260.401 327.303 260.34 327.291 260.278 327.291V327.291Z" fill="#6C63FF"/>
<path d="M165.397 327.613H161.661C160.648 327.613 159.826 328.435 159.826 329.45V343.172C159.826 344.187 160.648 345.009 161.661 345.009H165.397C166.41 345.009 167.232 344.187 167.232 343.172V329.45C167.232 328.435 166.41 327.613 165.397 327.613Z" fill="#6C63FF"/>
<path d="M175.428 327.613H171.665C171.178 327.613 170.711 327.806 170.367 328.151C170.023 328.495 169.83 328.963 169.83 329.45V343.172C169.83 343.659 170.023 344.127 170.367 344.471C170.711 344.816 171.178 345.009 171.665 345.009H175.428C175.915 345.009 176.382 344.816 176.726 344.471C177.07 344.127 177.264 343.659 177.264 343.172V329.45C177.264 328.963 177.07 328.495 176.726 328.151C176.382 327.806 175.915 327.613 175.428 327.613Z" fill="#6C63FF"/>
<path d="M277.455 308.278H59.6347C59.1897 308.276 58.7637 308.097 58.4499 307.781C58.1361 307.466 57.96 307.038 57.96 306.593C57.96 306.148 58.1361 305.72 58.4499 305.405C58.7637 305.089 59.1897 304.91 59.6347 304.908H277.455C277.677 304.906 277.897 304.949 278.102 305.033C278.308 305.117 278.494 305.241 278.652 305.398C278.809 305.554 278.934 305.741 279.019 305.946C279.104 306.151 279.148 306.371 279.148 306.593C279.148 306.815 279.104 307.035 279.019 307.24C278.934 307.445 278.809 307.631 278.652 307.788C278.494 307.945 278.308 308.069 278.102 308.153C277.897 308.237 277.677 308.28 277.455 308.278Z" fill="#6C63FF"/>
<path d="M124.376 311.952C123.316 311.954 122.279 311.641 121.397 311.054C120.514 310.466 119.826 309.629 119.418 308.65C119.011 307.67 118.903 306.592 119.108 305.551C119.313 304.51 119.822 303.553 120.57 302.802C121.319 302.051 122.273 301.538 123.312 301.329C124.352 301.12 125.429 301.225 126.409 301.629C127.39 302.033 128.228 302.72 128.818 303.601C129.409 304.482 129.725 305.518 129.727 306.579V306.588C129.727 308.009 129.163 309.372 128.16 310.378C127.157 311.384 125.796 311.95 124.376 311.952V311.952Z" fill="#CCCCCC"/>
<path d="M122.784 309.169H58.6885C58.0066 309.168 57.353 308.896 56.8713 308.413C56.3895 307.93 56.1189 307.275 56.1189 306.593C56.1189 305.911 56.3895 305.256 56.8713 304.773C57.353 304.29 58.0066 304.018 58.6885 304.017H122.784C123.142 304.018 123.484 304.16 123.737 304.413C123.99 304.666 124.132 305.009 124.133 305.367V307.819C124.132 308.177 123.99 308.52 123.737 308.773C123.484 309.026 123.142 309.168 122.784 309.169Z" fill="#CCCCCC"/>
<path d="M174.521 234.911C170.806 234.808 166.182 234.677 162.622 232.075C161.562 231.268 160.69 230.238 160.069 229.059C159.448 227.879 159.092 226.578 159.027 225.247C158.962 224.3 159.117 223.352 159.48 222.475C159.843 221.599 160.403 220.819 161.117 220.195C162.977 218.622 165.693 218.252 168.62 219.114L165.588 196.933L167.814 196.628L171.379 222.704L169.52 221.85C167.365 220.861 164.406 220.358 162.567 221.912C162.116 222.318 161.764 222.824 161.54 223.388C161.315 223.953 161.224 224.561 161.272 225.167C161.327 226.158 161.594 227.126 162.056 228.005C162.517 228.883 163.163 229.652 163.948 230.259C166.718 232.285 170.403 232.546 174.584 232.664L174.521 234.911Z" fill="#3F3D56"/>
<path d="M154.578 198.846H142.475V201.095H154.578V198.846Z" fill="#3F3D56"/>
<path d="M192.779 198.846H180.676V201.095H192.779V198.846Z" fill="#3F3D56"/>
<path d="M121.448 167.792C111.701 166.679 104.153 157.334 103.324 147.852C102.338 136.571 108.902 125.858 117.908 119.527C127.326 112.908 139.06 110.143 150.413 109.535C172.561 108.432 194.327 115.611 211.478 129.677C219.985 136.748 227.93 145.756 230.942 156.635C233.557 166.084 231.429 176.787 223.835 183.405C221.957 185.027 219.763 186.241 217.392 186.971C215.021 187.702 212.525 187.933 210.06 187.649C204.168 187.037 198.732 183.937 194.026 180.513C184.872 173.852 177.358 164.573 166.206 161.093C158.029 158.541 147.417 160.787 142.42 168.187C141.286 169.881 140.551 171.811 140.271 173.831C140.168 174.261 140.232 174.715 140.451 175.1C140.669 175.486 141.026 175.773 141.448 175.905C141.879 176.022 142.339 175.963 142.727 175.743C143.115 175.522 143.4 175.157 143.522 174.727C144.833 165.406 156.286 161.928 164.322 164.057C176.039 167.161 183.905 177.625 193.519 184.273C198.573 187.768 204.322 190.563 210.521 191.064C215.865 191.484 221.169 189.853 225.356 186.504C233.569 180.013 236.71 168.851 234.894 158.8C232.791 147.162 224.963 137.187 216.375 129.465C198.964 113.974 176.36 105.618 153.068 106.06C141.187 106.333 128.792 108.788 118.557 115.072C108.629 121.167 100.956 131.365 99.9529 143.218C99.0701 153.652 104.664 164.565 114.266 169.136C116.529 170.209 118.957 170.895 121.448 171.165C123.599 171.41 123.582 168.035 121.448 167.792L121.448 167.792Z" fill="#3F3D56"/>
</g>
<defs>
<clipPath id="clip0">
<rect width="560" height="424" fill="white"/>
</clipPath>
</defs>
</svg>
